<?xml version="1.0" encoding="UTF-8"?>
<svg width="400px" height="400px" viewBox="0 0 400 400" version="1.1" xmlns="http://www.w3.org/2000/svg" xmlns:xlink="http://www.w3.org/1999/xlink">
    <title>Combined Shape</title>
    <g id="parsley" stroke="none" stroke-width="1" fill="none" fill-rule="evenodd">
        <g id="original" fill="#1FD200">
            <path d="M320,0 C364.18278,-1.42108547e-14 400,35.81722 400,80 L400,220 C400,264.18278 364.18278,300 320,300 L200,300 L200,320 C200,364.18278 164.18278,400 120,400 L80,400 C35.81722,400 0,364.18278 0,320 L0,80 C0,35.81722 35.81722,0 80,0 L320,0 Z M203.7,82 L180.7,82 L173.529,115.4 L153.3,115.4 L147.9,137.8 L168.72,137.8 L163.309,163 L145.7,163 L140.3,185.2 L158.542,185.2 L151.5,218 L174.3,218 L181.391,185.2 L201.542,185.2 L194.5,218 L217.3,218 L224.486,185.2 L245.1,185.2 L251.1,163 L229.351,163 L234.873,137.8 L254.3,137.8 L259.7,115.4 L239.781,115.4 L247.1,82 L223.7,82 L216.528,115.4 L196.48,115.4 L203.7,82 Z M211.719,137.8 L206.308,163 L186.19,163 L191.638,137.8 L211.719,137.8 Z" id="Combined-Shape"></path>
        </g>
    </g>
</svg>